M48
; DRILL file {KiCad 9.0.8} date 2026-03-18T14:48:38-0400
; FORMAT={-:-/ absolute / metric / decimal}
; #@! TF.CreationDate,2026-03-18T14:48:38-04:00
; #@! TF.GenerationSoftware,Kicad,Pcbnew,9.0.8
; #@! TF.FileFunction,Plated,1,2,PTH
FMAT,2
METRIC
; #@! TA.AperFunction,Plated,PTH,ViaDrill
T1C0.300
; #@! TA.AperFunction,Plated,PTH,ComponentDrill
T2C0.300
; #@! TA.AperFunction,Plated,PTH,ComponentDrill
T3C0.700
; #@! TA.AperFunction,Plated,PTH,ComponentDrill
T4C0.800
; #@! TA.AperFunction,Plated,PTH,ComponentDrill
T5C1.000
; #@! TA.AperFunction,Plated,PTH,ComponentDrill
T6C1.067
; #@! TA.AperFunction,Plated,PTH,ComponentDrill
T7C1.100
; #@! TA.AperFunction,Plated,PTH,ComponentDrill
T8C1.200
; #@! TA.AperFunction,Plated,PTH,ComponentDrill
T9C1.250
; #@! TA.AperFunction,Plated,PTH,ComponentDrill
T10C1.300
; #@! TA.AperFunction,Plated,PTH,ComponentDrill
T11C1.397
; #@! TA.AperFunction,Plated,PTH,ComponentDrill
T12C1.400
; #@! TA.AperFunction,Plated,PTH,ComponentDrill
T13C1.500
; #@! TA.AperFunction,Plated,PTH,ComponentDrill
T14C1.700
; #@! TA.AperFunction,Plated,PTH,ComponentDrill
T15C2.000
; #@! TA.AperFunction,Plated,PTH,ComponentDrill
T16C2.200
%
G90
G05
T1
X61.426Y-100.868
X61.648Y-125.626
X67.354Y-104.396
X67.357Y-127.784
X67.369Y-133.782
X67.608Y-139.97
X69.181Y-76.281
X74.939Y-93.939
X76.284Y-52.992
X77.193Y-29.055
X79.261Y-20.078
X83.753Y-139.766
X85.198Y-79.922
X85.991Y-82.914
X88.17Y-157.719
X90.398Y-103.276
X93.32Y-76.707
X94.113Y-70.946
X94.509Y-91.974
X97.007Y-107.172
X97.084Y-88.436
X100.056Y-73.938
X102.018Y-139.486
X105.999Y-88.899
X117.885Y-130.322
X118.678Y-96.664
X123.058Y-48.99
X124.949Y-34.291
X125.893Y-45.848
X126.107Y-38.147
X126.799Y-91.891
X129.396Y-41.54
X129.466Y-31.469
X129.498Y-43.478
X129.756Y-34.339
X129.771Y-61.969
X130.356Y-37.725
X130.437Y-43.02
X130.728Y-32.642
X131.207Y-37.089
X131.283Y-38.562
X131.804Y-35.923
X132.212Y-43.136
X132.644Y-86.005
X133.75Y-33.913
X134.436Y-39.977
X134.645Y-43.048
X134.727Y-41.826
X134.73Y-37.16
X134.844Y-39.176
X135.005Y-35.515
X135.714Y-106.852
X135.98Y-32.556
X136.82Y-37.945
X144.628Y-100.868
X147.491Y-109.888
X198.536Y-94.365
X215.944Y-67.953
X218.916Y-119.259
T2
X133.0Y-37.0
X133.0Y-38.0
X133.0Y-39.0
T3
X40.0Y-24.0
X45.08Y-24.0
X75.18Y-65.46
X80.26Y-65.46
T4
X21.8Y-17.46
X21.8Y-20.0
X21.8Y-22.54
X21.8Y-25.08
X21.8Y-27.62
X53.0Y-21.0
X53.0Y-23.54
X53.0Y-26.08
X53.0Y-28.62
X53.0Y-31.16
X53.0Y-33.7
X53.0Y-36.24
X53.0Y-38.78
X60.62Y-21.0
X60.62Y-23.54
X60.62Y-26.08
X60.62Y-28.62
X60.62Y-31.16
X60.62Y-33.7
X60.62Y-36.24
X60.62Y-38.78
X183.0Y-100.0
X188.0Y-100.0
X197.0Y-115.0
X202.0Y-115.0
X216.0Y-102.0
X221.0Y-102.0
X224.0Y-101.0
X229.0Y-101.0
T5
X28.172Y-153.418
X36.952Y-144.638
X54.8Y-153.18
X63.58Y-144.4
X94.55Y-94.35
X94.6Y-126.35
X96.55Y-94.35
X96.6Y-126.35
X98.0Y-48.38
X98.0Y-50.92
X98.0Y-53.46
X98.0Y-56.0
X98.0Y-58.54
X98.0Y-61.08
X98.0Y-63.62
X98.55Y-94.35
X98.6Y-126.35
X100.55Y-94.35
X100.6Y-126.35
X102.55Y-94.35
X102.6Y-126.35
X103.0Y-41.0
X103.0Y-43.54
X103.0Y-46.08
X103.0Y-48.62
X103.0Y-51.16
X103.0Y-53.7
X103.0Y-56.24
X103.0Y-58.78
X103.0Y-61.32
X103.0Y-63.86
X103.0Y-66.4
X103.0Y-68.94
X103.0Y-71.48
X103.0Y-74.02
X103.0Y-76.56
X118.24Y-41.0
X118.24Y-43.54
X118.24Y-46.08
X118.24Y-48.62
X118.24Y-51.16
X118.24Y-53.7
X118.24Y-56.24
X118.24Y-58.78
X118.24Y-61.32
X118.24Y-63.86
X118.24Y-66.4
X118.24Y-68.94
X118.24Y-71.48
X118.24Y-74.02
X118.24Y-76.56
X120.0Y-126.35
X122.0Y-126.35
X124.0Y-126.35
X126.0Y-126.35
X128.0Y-126.35
X141.75Y-87.5
X141.75Y-107.7
X144.29Y-87.5
X144.29Y-95.12
X144.29Y-107.7
X144.29Y-115.32
X145.4Y-126.35
X147.4Y-126.35
X149.37Y-87.5
X149.37Y-95.12
X149.37Y-107.7
X149.37Y-115.32
X149.4Y-126.35
X151.4Y-126.35
X153.4Y-126.35
X219.94Y-33.86
X228.72Y-25.08
T7
X66.26Y-70.46
X66.26Y-73.0
X66.26Y-75.54
X66.26Y-78.08
X66.26Y-80.62
X66.26Y-83.16
X66.26Y-85.7
X66.26Y-88.24
X66.26Y-90.78
X66.26Y-93.32
X66.26Y-95.86
X66.26Y-98.4
X66.26Y-100.94
X66.26Y-103.48
X66.26Y-106.02
X66.26Y-108.56
X66.26Y-111.1
X66.26Y-113.64
X66.26Y-116.18
X66.26Y-118.72
X81.5Y-70.46
X81.5Y-73.0
X81.5Y-75.54
X81.5Y-78.08
X81.5Y-80.62
X81.5Y-83.16
X81.5Y-85.7
X81.5Y-88.24
X81.5Y-90.78
X81.5Y-93.32
X81.5Y-95.86
X81.5Y-98.4
X81.5Y-100.94
X81.5Y-103.48
X81.5Y-106.02
X81.5Y-108.56
X81.5Y-111.1
X81.5Y-113.64
X81.5Y-116.18
X81.5Y-118.72
X95.95Y-108.85
X96.0Y-140.85
X98.45Y-108.85
X98.5Y-140.85
X100.95Y-108.85
X101.0Y-140.85
X121.4Y-140.85
X123.9Y-140.85
X126.4Y-140.85
X146.8Y-140.85
X149.3Y-140.85
X151.8Y-140.85
X156.99Y-95.12
X156.99Y-115.32
T8
X83.15Y-160.25
X85.65Y-160.25
X88.15Y-160.25
X108.55Y-160.25
X111.05Y-160.25
X113.55Y-160.25
X133.95Y-160.25
X136.45Y-160.25
X138.95Y-160.25
X159.35Y-160.25
X161.85Y-160.25
X164.35Y-160.25
T9
X31.6Y-51.35
X35.1Y-51.35
X35.1Y-124.85
X46.85Y-51.35
X50.35Y-51.35
X50.35Y-124.85
T10
X199.0Y-107.0
X204.0Y-107.0
X212.0Y-153.0
X217.0Y-153.0
T11
X192.403Y-54.525
X192.403Y-60.219
X195.25Y-49.593
X195.25Y-65.15
X200.181Y-67.997
X200.2Y-60.2
T13
X184.0Y-95.5
X184.0Y-114.55
X186.5Y-95.5
X186.5Y-114.55
X189.0Y-95.5
X189.0Y-114.55
X199.875Y-133.6
X199.875Y-152.65
X202.375Y-133.6
X202.375Y-152.65
X204.875Y-133.6
X204.875Y-152.65
X215.75Y-95.5
X215.75Y-114.55
X218.25Y-95.5
X218.25Y-114.55
X220.75Y-95.5
X220.75Y-114.55
T14
X29.1Y-55.6
X29.1Y-120.6
X37.6Y-56.6
X37.6Y-119.5
X44.35Y-55.6
X44.35Y-120.6
X52.85Y-56.6
X52.85Y-119.5
T15
X24.192Y-147.598
X31.132Y-140.658
X35.242Y-151.708
X50.82Y-147.36
X57.76Y-140.42
X61.87Y-151.47
X215.96Y-28.04
X222.9Y-21.1
X227.01Y-32.15
T6
G00X64.2Y-25.34
M15
G01X64.2Y-23.41
M16
G05
G00X69.965Y-21.25
M15
G01X68.035Y-21.25
M16
G05
G00X69.965Y-27.5
M15
G01X68.035Y-27.5
M16
G05
T12
G00X80.7Y-152.75
M15
G01X81.3Y-152.75
M16
G05
G00X90.0Y-152.75
M15
G01X90.6Y-152.75
M16
G05
G00X106.1Y-152.75
M15
G01X106.7Y-152.75
M16
G05
G00X115.4Y-152.75
M15
G01X116.0Y-152.75
M16
G05
G00X131.5Y-152.75
M15
G01X132.1Y-152.75
M16
G05
G00X140.8Y-152.75
M15
G01X141.4Y-152.75
M16
G05
G00X156.9Y-152.75
M15
G01X157.5Y-152.75
M16
G05
G00X166.2Y-152.75
M15
G01X166.8Y-152.75
M16
G05
T15
G00X182.2Y-88.3
M15
G01X182.2Y-88.7
M16
G05
G00X182.2Y-107.35
M15
G01X182.2Y-107.75
M16
G05
G00X190.8Y-88.3
M15
G01X190.8Y-88.7
M16
G05
G00X190.8Y-107.35
M15
G01X190.8Y-107.75
M16
G05
G00X198.075Y-126.4
M15
G01X198.075Y-126.8
M16
G05
G00X198.075Y-145.45
M15
G01X198.075Y-145.85
M16
G05
G00X206.675Y-126.4
M15
G01X206.675Y-126.8
M16
G05
G00X206.675Y-145.45
M15
G01X206.675Y-145.85
M16
G05
G00X213.95Y-88.3
M15
G01X213.95Y-88.7
M16
G05
G00X213.95Y-107.35
M15
G01X213.95Y-107.75
M16
G05
G00X222.55Y-88.3
M15
G01X222.55Y-88.7
M16
G05
G00X222.55Y-107.35
M15
G01X222.55Y-107.75
M16
G05
T16
G00X93.075Y-101.2
M15
G01X93.075Y-101.5
M16
G05
G00X93.125Y-133.2
M15
G01X93.125Y-133.5
M16
G05
G00X104.075Y-101.2
M15
G01X104.075Y-101.5
M16
G05
G00X104.125Y-133.2
M15
G01X104.125Y-133.5
M16
G05
G00X118.525Y-133.2
M15
G01X118.525Y-133.5
M16
G05
G00X129.525Y-133.2
M15
G01X129.525Y-133.5
M16
G05
G00X143.925Y-133.2
M15
G01X143.925Y-133.5
M16
G05
G00X154.925Y-133.2
M15
G01X154.925Y-133.5
M16
G05
M30
